<svg width="38" height="43" viewBox="0 0 38 43" fill="none" xmlns="http://www.w3.org/2000/svg">
<rect x="3.5" y="2.5" width="30" height="31" rx="7.5" fill="#E6F3FF"/>
<g filter="url(#filter0_d_25_691)">
<path d="M18.6432 26.216C17.9072 26.216 17.1872 26.16 16.4832 26.048C15.7792 25.936 15.1152 25.768 14.4912 25.544C13.8672 25.304 13.3072 25.016 12.8112 24.68C12.5712 24.504 12.4032 24.304 12.3072 24.08C12.2272 23.856 12.2032 23.64 12.2352 23.432C12.2832 23.208 12.3792 23.016 12.5232 22.856C12.6672 22.696 12.8432 22.6 13.0512 22.568C13.2592 22.52 13.4912 22.584 13.7472 22.76C14.4672 23.224 15.2272 23.568 16.0272 23.792C16.8272 24 17.6992 24.104 18.6432 24.104C20.0032 24.104 21.0032 23.864 21.6432 23.384C22.2992 22.888 22.6272 22.248 22.6272 21.464C22.6272 20.824 22.3952 20.32 21.9312 19.952C21.4672 19.568 20.6912 19.264 19.6032 19.04L17.0352 18.512C15.5152 18.192 14.3792 17.664 13.6272 16.928C12.8912 16.192 12.5232 15.2 12.5232 13.952C12.5232 13.2 12.6752 12.512 12.9792 11.888C13.2992 11.264 13.7392 10.728 14.2992 10.28C14.8592 9.816 15.5312 9.464 16.3152 9.224C17.0992 8.984 17.9552 8.864 18.8832 8.864C19.8752 8.864 20.8032 8.992 21.6672 9.248C22.5472 9.504 23.3312 9.896 24.0192 10.424C24.2272 10.568 24.3632 10.752 24.4272 10.976C24.5072 11.184 24.5232 11.392 24.4752 11.6C24.4432 11.808 24.3552 11.984 24.2112 12.128C24.0672 12.272 23.8832 12.36 23.6592 12.392C23.4352 12.408 23.1872 12.328 22.9152 12.152C22.2912 11.736 21.6512 11.44 20.9952 11.264C20.3552 11.072 19.6432 10.976 18.8592 10.976C18.0752 10.976 17.3872 11.096 16.7952 11.336C16.2192 11.576 15.7712 11.912 15.4512 12.344C15.1472 12.776 14.9952 13.288 14.9952 13.88C14.9952 14.552 15.2112 15.088 15.6432 15.488C16.0752 15.888 16.7952 16.192 17.8032 16.4L20.3472 16.928C21.9472 17.264 23.1392 17.784 23.9232 18.488C24.7072 19.192 25.0992 20.128 25.0992 21.296C25.0992 22.048 24.9472 22.728 24.6432 23.336C24.3392 23.928 23.9072 24.44 23.3472 24.872C22.7872 25.304 22.1072 25.64 21.3072 25.88C20.5232 26.104 19.6352 26.216 18.6432 26.216Z" fill="#0085FF"/>
</g>
<g filter="url(#filter1_f_25_691)">
<path d="M19 31L13.8038 26.5H24.1962L19 31Z" fill="#66B6FF"/>
</g>
<rect x="3.5" y="2.5" width="30" height="31" rx="7.5" stroke="#66B6FF"/>
<defs>
<filter id="filter0_d_25_691" x="0.1875" y="0.864014" width="36.9121" height="41.3519" filterUnits="userSpaceOnUse" color-interpolation-filters="sRGB">
<feFlood flood-opacity="0" result="BackgroundImageFix"/>
<feColorMatrix in="SourceAlpha" type="matrix" values="0 0 0 0 0 0 0 0 0 0 0 0 0 0 0 0 0 0 127 0" result="hardAlpha"/>
<feOffset dy="4"/>
<feGaussianBlur stdDeviation="6"/>
<feComposite in2="hardAlpha" operator="out"/>
<feColorMatrix type="matrix" values="0 0 0 0 0 0 0 0 0 0.521569 0 0 0 0 1 0 0 0 0.12 0"/>
<feBlend mode="normal" in2="BackgroundImageFix" result="effect1_dropShadow_25_691"/>
<feBlend mode="normal" in="SourceGraphic" in2="effect1_dropShadow_25_691" result="shape"/>
</filter>
<filter id="filter1_f_25_691" x="9.80371" y="22.5" width="18.3926" height="12.5" filterUnits="userSpaceOnUse" color-interpolation-filters="sRGB">
<feFlood flood-opacity="0" result="BackgroundImageFix"/>
<feBlend mode="normal" in="SourceGraphic" in2="BackgroundImageFix" result="shape"/>
<feGaussianBlur stdDeviation="2" result="effect1_foregroundBlur_25_691"/>
</filter>
</defs>
</svg>
